# xmcd
#
# Track frame offsets: 
#        150
#        14130
#        37801
#        62610
#        89279
#        112366
#        136643
#        174001
#        196987
#        203211
#        211778
#
# Disc length: 3112 seconds
#
# Revision: 0
# Processed by: cddbd v1.5.2PL0 Copyright (c) Steve Scherf et al.
# Submitted via: ExactAudioCopy v0.99pb5
#
DISCID=900c260b
DTITLE=Greater Vision - 20 Years: Live In Texas (2)
DYEAR=2010
DGENRE=Gospel
TTITLE0=Just One More Soul
TTITLE1=He's Still Waiting By The Well
TTITLE2=Faces
TTITLE3=He Is To Me
TTITLE4=A Pile Of Crowns
TTITLE5=So Much God
TTITLE6=I Know He Heard My Prayer
TTITLE7=You'll Carry Me Through
TTITLE8=Through It All
TTITLE9=Narrative
TTITLE10=God Wants To Hear You Sing
EXTD=
EXTT0=
EXTT1=
EXTT2=
EXTT3=
EXTT4=
EXTT5=
EXTT6=
EXTT7=
EXTT8=
EXTT9=
EXTT10=
PLAYORDER=
